<svg xmlns="http://www.w3.org/2000/svg" style="display: none;">

  <symbol xmlns="http://www.w3.org/2000/svg" viewBox="0 0 48 48" id="xmark-circle-fill"><path stroke-linejoin="round" stroke-width="4" stroke="currentColor" fill="currentColor" d="M24 44c11.046 0 20-8.954 20-20S35.046 4 24 4 4 12.954 4 24s8.954 20 20 20Z"></path><path data-follow-stroke="#FFF" stroke-linejoin="round" stroke-linecap="round" stroke-width="4" stroke="#FFF" d="M29.657 18.343 18.343 29.657m0-11.314 11.314 11.314"></path></symbol>
  <symbol xmlns="http://www.w3.org/2000/svg" viewBox="0 0 48 48" id="check-circle-fill"><path d="M24 44a19.937 19.937 0 0 0 14.142-5.858A19.937 19.937 0 0 0 44 24a19.938 19.938 0 0 0-5.858-14.142A19.937 19.937 0 0 0 24 4 19.938 19.938 0 0 0 9.858 9.858 19.938 19.938 0 0 0 4 24a19.937 19.937 0 0 0 5.858 14.142A19.938 19.938 0 0 0 24 44Z" fill="currentColor" stroke="currentColor" stroke-width="4" stroke-linejoin="round"></path><path data-follow-stroke="#FFF" d="m16 24 6 6 12-12" stroke="#FFF" stroke-width="4" stroke-linecap="round" stroke-linejoin="round"></path></symbol>

</svg>