<svg xmlns="http://www.w3.org/2000/svg" style="display: none;">

  <symbol xmlns="http://www.w3.org/2000/svg" viewBox="0 0 48 48" id="failed"><path stroke-linejoin="round" stroke-width="4" stroke="currentColor" fill="currentColor" d="M24 44c11.046 0 20-8.954 20-20S35.046 4 24 4 4 12.954 4 24s8.954 20 20 20Z"></path>
    <path data-follow-stroke="#FFF" stroke-linejoin="round" stroke-linecap="round" stroke-width="4" stroke="#FFF" d="M29.657 18.343 18.343 29.657m0-11.314 11.314 11.314"></path>
  </symbol>
  <symbol xmlns="http://www.w3.org/2000/svg" viewBox="0 0 48 48" id="success">
    <path d="M24 44a19.937 19.937 0 0 0 14.142-5.858A19.937 19.937 0 0 0 44 24a19.938 19.938 0 0 0-5.858-14.142A19.937 19.937 0 0 0 24 4 19.938 19.938 0 0 0 9.858 9.858 19.938 19.938 0 0 0 4 24a19.937 19.937 0 0 0 5.858 14.142A19.938 19.938 0 0 0 24 44Z" fill="currentColor" stroke="currentColor" stroke-width="4" stroke-linejoin="round"></path>
    <path data-follow-stroke="#FFF" d="m16 24 6 6 12-12" stroke="#FFF" stroke-width="4" stroke-linecap="round" stroke-linejoin="round"></path>
  </symbol>
  <symbol fill="currentColor" id="running" xmlns="http://www.w3.org/2000/svg" xmlns:xlink="http://www.w3.org/1999/xlink" 
    viewBox="0 0 489.698 489.698" xml:space="preserve">
    <g>
      <g>
        <path d="M468.999,227.774c-11.4,0-20.8,8.3-20.8,19.8c-1,74.9-44.2,142.6-110.3,178.9c-99.6,54.7-216,5.6-260.6-61l62.9,13.1
          c10.4,2.1,21.8-4.2,23.9-15.6c2.1-10.4-4.2-21.8-15.6-23.9l-123.7-26c-7.2-1.7-26.1,3.5-23.9,22.9l15.6,124.8
          c1,10.4,9.4,17.7,19.8,17.7c15.5,0,21.8-11.4,20.8-22.9l-7.3-60.9c101.1,121.3,229.4,104.4,306.8,69.3
          c80.1-42.7,131.1-124.8,132.1-215.4C488.799,237.174,480.399,227.774,468.999,227.774z"/>
        <path d="M20.599,261.874c11.4,0,20.8-8.3,20.8-19.8c1-74.9,44.2-142.6,110.3-178.9c99.6-54.7,216-5.6,260.6,61l-62.9-13.1
          c-10.4-2.1-21.8,4.2-23.9,15.6c-2.1,10.4,4.2,21.8,15.6,23.9l123.8,26c7.2,1.7,26.1-3.5,23.9-22.9l-15.6-124.8
          c-1-10.4-9.4-17.7-19.8-17.7c-15.5,0-21.8,11.4-20.8,22.9l7.2,60.9c-101.1-121.2-229.4-104.4-306.8-69.2
          c-80.1,42.6-131.1,124.8-132.2,215.3C0.799,252.574,9.199,261.874,20.599,261.874z"/>
      </g>
    </g>
  </symbol>
  <symbol id="pending1" viewBox="0 0 1024 1024" version="1.1" xmlns="http://www.w3.org/2000/svg">
    <path d="M511.9 183c-181.8 0-329.1 147.4-329.1 329.1s147.4 329.1 329.1 329.1c181.8 0 329.1-147.4 329.1-329.1S693.6 183 511.9 183z m0 585.2c-141.2 0-256-114.8-256-256s114.8-256 256-256 256 114.8 256 256-114.9 256-256 256z" fill="#0F1F3C" />
    <path d="M548.6 365.7h-73.2v161.4l120.5 120.5 51.7-51.7-99-99z" fill="#0F1F3C" />
  </symbol>
  <symbol fill="currentColor" id="pending" xmlns="http://www.w3.org/2000/svg" shape-rendering="geometricPrecision" text-rendering="geometricPrecision" image-rendering="optimizeQuality" fill-rule="evenodd" clip-rule="evenodd" viewBox="0 0 502 511.82">
    <path fill-rule="nonzero" d="M279.75 471.21c14.34-1.9 25.67 12.12 20.81 25.75-2.54 6.91-8.44 11.76-15.76 12.73a260.727 260.727 0 0 1-50.81 1.54c-62.52-4.21-118.77-31.3-160.44-72.97C28.11 392.82 0 330.04 0 260.71 0 191.37 28.11 128.6 73.55 83.16S181.76 9.61 251.1 9.61c24.04 0 47.47 3.46 69.8 9.91a249.124 249.124 0 0 1 52.61 21.97l-4.95-12.96c-4.13-10.86 1.32-23.01 12.17-27.15 10.86-4.13 23.01 1.32 27.15 12.18L428.8 68.3a21.39 21.39 0 0 1 1.36 6.5c1.64 10.2-4.47 20.31-14.63 23.39l-56.03 17.14c-11.09 3.36-22.8-2.9-26.16-13.98-3.36-11.08 2.9-22.8 13.98-26.16l4.61-1.41a210.71 210.71 0 0 0-41.8-17.12c-18.57-5.36-38.37-8.24-59.03-8.24-58.62 0-111.7 23.76-150.11 62.18-38.42 38.41-62.18 91.48-62.18 150.11 0 58.62 23.76 111.69 62.18 150.11 34.81 34.81 81.66 57.59 133.77 61.55 14.9 1.13 30.23.76 44.99-1.16zm-67.09-312.63c0-10.71 8.69-19.4 19.41-19.4 10.71 0 19.4 8.69 19.4 19.4V276.7l80.85 35.54c9.8 4.31 14.24 15.75 9.93 25.55-4.31 9.79-15.75 14.24-25.55 9.93l-91.46-40.2c-7.35-2.77-12.58-9.86-12.58-18.17V158.58zm134.7 291.89c-15.62 7.99-13.54 30.9 3.29 35.93 4.87 1.38 9.72.96 14.26-1.31 12.52-6.29 24.54-13.7 35.81-22.02 5.5-4.1 8.36-10.56 7.77-17.39-1.5-15.09-18.68-22.74-30.89-13.78a208.144 208.144 0 0 1-30.24 18.57zm79.16-69.55c-8.84 13.18 1.09 30.9 16.97 30.2 6.21-.33 11.77-3.37 15.25-8.57 7.86-11.66 14.65-23.87 20.47-36.67 5.61-12.64-3.13-26.8-16.96-27.39-7.93-.26-15.11 4.17-18.41 11.4-4.93 10.85-10.66 21.15-17.32 31.03zm35.66-99.52c-.7 7.62 3 14.76 9.59 18.63 12.36 7.02 27.6-.84 29.05-14.97 1.33-14.02 1.54-27.9.58-41.95-.48-6.75-4.38-12.7-10.38-15.85-13.46-6.98-29.41 3.46-28.34 18.57.82 11.92.63 23.67-.5 35.57zM446.1 177.02c4.35 10.03 16.02 14.54 25.95 9.96 9.57-4.4 13.86-15.61 9.71-25.29-5.5-12.89-12.12-25.28-19.69-37.08-9.51-14.62-31.89-10.36-35.35 6.75-.95 5.03-.05 9.94 2.72 14.27 6.42 10.02 12 20.44 16.66 31.39z"/>
  </symbol>
</svg>