<svg xmlns="http://www.w3.org/2000/svg" style="display: none;">

  <symbol xmlns="http://www.w3.org/2000/svg" viewBox="0 0 48 48" id="failed"><path stroke-linejoin="round" stroke-width="4" stroke="currentColor" fill="currentColor" d="M24 44c11.046 0 20-8.954 20-20S35.046 4 24 4 4 12.954 4 24s8.954 20 20 20Z"></path><path data-follow-stroke="#FFF" stroke-linejoin="round" stroke-linecap="round" stroke-width="4" stroke="#FFF" d="M29.657 18.343 18.343 29.657m0-11.314 11.314 11.314"></path></symbol>
  <symbol xmlns="http://www.w3.org/2000/svg" viewBox="0 0 48 48" id="success"><path d="M24 44a19.937 19.937 0 0 0 14.142-5.858A19.937 19.937 0 0 0 44 24a19.938 19.938 0 0 0-5.858-14.142A19.937 19.937 0 0 0 24 4 19.938 19.938 0 0 0 9.858 9.858 19.938 19.938 0 0 0 4 24a19.937 19.937 0 0 0 5.858 14.142A19.938 19.938 0 0 0 24 44Z" fill="currentColor" stroke="currentColor" stroke-width="4" stroke-linejoin="round"></path><path data-follow-stroke="#FFF" d="m16 24 6 6 12-12" stroke="#FFF" stroke-width="4" stroke-linecap="round" stroke-linejoin="round"></path></symbol>
  <symbol fill="#000000" id="running" xmlns="http://www.w3.org/2000/svg" xmlns:xlink="http://www.w3.org/1999/xlink" 
    viewBox="0 0 489.698 489.698" xml:space="preserve">
    <g>
      <g>
        <path d="M468.999,227.774c-11.4,0-20.8,8.3-20.8,19.8c-1,74.9-44.2,142.6-110.3,178.9c-99.6,54.7-216,5.6-260.6-61l62.9,13.1
          c10.4,2.1,21.8-4.2,23.9-15.6c2.1-10.4-4.2-21.8-15.6-23.9l-123.7-26c-7.2-1.7-26.1,3.5-23.9,22.9l15.6,124.8
          c1,10.4,9.4,17.7,19.8,17.7c15.5,0,21.8-11.4,20.8-22.9l-7.3-60.9c101.1,121.3,229.4,104.4,306.8,69.3
          c80.1-42.7,131.1-124.8,132.1-215.4C488.799,237.174,480.399,227.774,468.999,227.774z"/>
        <path d="M20.599,261.874c11.4,0,20.8-8.3,20.8-19.8c1-74.9,44.2-142.6,110.3-178.9c99.6-54.7,216-5.6,260.6,61l-62.9-13.1
          c-10.4-2.1-21.8,4.2-23.9,15.6c-2.1,10.4,4.2,21.8,15.6,23.9l123.8,26c7.2,1.7,26.1-3.5,23.9-22.9l-15.6-124.8
          c-1-10.4-9.4-17.7-19.8-17.7c-15.5,0-21.8,11.4-20.8,22.9l7.2,60.9c-101.1-121.2-229.4-104.4-306.8-69.2
          c-80.1,42.6-131.1,124.8-132.2,215.3C0.799,252.574,9.199,261.874,20.599,261.874z"/>
      </g>
    </g>
  </symbol>
</svg>